<mxfile host="65bd71144e">
    <diagram id="aW3MW3CRiCOUWoQpYGnL" name="Page-1">
        <mxGraphModel dx="1897" dy="992" grid="1" gridSize="10" guides="1" tooltips="1" connect="1" arrows="1" fold="1" page="1" pageScale="1" pageWidth="850" pageHeight="1100" math="0" shadow="0">
            <root>
                <mxCell id="0"/>
                <mxCell id="1" parent="0"/>
                <mxCell id="4" style="edgeStyle=none;html=1;entryX=0.5;entryY=0;entryDx=0;entryDy=0;" parent="1" source="2" target="3" edge="1">
                    <mxGeometry relative="1" as="geometry"/>
                </mxCell>
                <mxCell id="2" value="Start" style="rounded=1;whiteSpace=wrap;html=1;fontSize=14;" parent="1" vertex="1">
                    <mxGeometry x="370" y="20" width="120" height="70" as="geometry"/>
                </mxCell>
                <mxCell id="6" style="edgeStyle=none;html=1;entryX=0.5;entryY=0;entryDx=0;entryDy=0;" parent="1" source="3" target="5" edge="1">
                    <mxGeometry relative="1" as="geometry"/>
                </mxCell>
                <mxCell id="3" value="n_Multiplicar, n_Tabla, resultado" style="shape=parallelogram;perimeter=parallelogramPerimeter;whiteSpace=wrap;html=1;fixedSize=1;fontSize=15;" parent="1" vertex="1">
                    <mxGeometry x="290" y="130" width="280" height="60" as="geometry"/>
                </mxCell>
                <mxCell id="5" value="&lt;div&gt;&lt;br&gt;&lt;/div&gt;&quot;Ingrese el numero de la tabla de multiplicar&quot;" style="shape=document;whiteSpace=wrap;html=1;boundedLbl=1;fontSize=14;" parent="1" vertex="1">
                    <mxGeometry x="340" y="240" width="180" height="100" as="geometry"/>
                </mxCell>
                <mxCell id="21" style="edgeStyle=none;html=1;entryX=0.5;entryY=0;entryDx=0;entryDy=0;" parent="1" source="9" target="18" edge="1">
                    <mxGeometry relative="1" as="geometry"/>
                </mxCell>
                <mxCell id="9" value="&lt;div&gt;&lt;br&gt;&lt;/div&gt;leer n_Tabla" style="shape=manualInput;whiteSpace=wrap;html=1;" parent="1" vertex="1">
                    <mxGeometry x="365" y="370" width="130" height="80" as="geometry"/>
                </mxCell>
                <mxCell id="10" style="edgeStyle=none;html=1;entryX=0.5;entryY=0.16;entryDx=0;entryDy=0;entryPerimeter=0;exitX=0.5;exitY=0.836;exitDx=0;exitDy=0;exitPerimeter=0;" parent="1" source="5" target="9" edge="1">
                    <mxGeometry relative="1" as="geometry"/>
                </mxCell>
                <mxCell id="18" value="&quot;Ingrese hasta que numero desea multiplicar de la tabla&quot;" style="shape=document;whiteSpace=wrap;html=1;boundedLbl=1;fontSize=14;" parent="1" vertex="1">
                    <mxGeometry x="340" y="500" width="180" height="100" as="geometry"/>
                </mxCell>
                <mxCell id="23" style="edgeStyle=none;html=1;entryX=0.5;entryY=0;entryDx=0;entryDy=0;" edge="1" parent="1" source="19" target="22">
                    <mxGeometry relative="1" as="geometry"/>
                </mxCell>
                <mxCell id="19" value="&lt;div&gt;&lt;br&gt;&lt;/div&gt;leer n_Multiplicar" style="shape=manualInput;whiteSpace=wrap;html=1;" parent="1" vertex="1">
                    <mxGeometry x="365" y="630" width="130" height="80" as="geometry"/>
                </mxCell>
                <mxCell id="20" style="edgeStyle=none;html=1;entryX=0.5;entryY=0.16;entryDx=0;entryDy=0;entryPerimeter=0;exitX=0.5;exitY=0.836;exitDx=0;exitDy=0;exitPerimeter=0;" parent="1" source="18" target="19" edge="1">
                    <mxGeometry relative="1" as="geometry"/>
                </mxCell>
                <mxCell id="26" value="" style="edgeStyle=none;html=1;" edge="1" parent="1" source="22" target="25">
                    <mxGeometry relative="1" as="geometry"/>
                </mxCell>
                <mxCell id="34" style="edgeStyle=none;html=1;exitX=1;exitY=0.5;exitDx=0;exitDy=0;" edge="1" parent="1" source="22">
                    <mxGeometry relative="1" as="geometry">
                        <mxPoint x="730" y="960" as="targetPoint"/>
                        <Array as="points">
                            <mxPoint x="730" y="800"/>
                        </Array>
                    </mxGeometry>
                </mxCell>
                <mxCell id="22" value="for(int i = 1; i &amp;lt;= n_Multiplicar; i++)" style="shape=hexagon;perimeter=hexagonPerimeter2;whiteSpace=wrap;html=1;fixedSize=1;fontSize=14;" vertex="1" parent="1">
                    <mxGeometry x="310" y="760" width="240" height="80" as="geometry"/>
                </mxCell>
                <mxCell id="29" style="edgeStyle=none;html=1;entryX=0.5;entryY=0;entryDx=0;entryDy=0;" edge="1" parent="1" source="25" target="28">
                    <mxGeometry relative="1" as="geometry"/>
                </mxCell>
                <mxCell id="25" value="resultado = (n_Tabla * i);" style="whiteSpace=wrap;html=1;fontSize=14;" vertex="1" parent="1">
                    <mxGeometry x="340" y="900" width="180" height="90" as="geometry"/>
                </mxCell>
                <mxCell id="31" style="edgeStyle=none;html=1;entryX=0.5;entryY=0;entryDx=0;entryDy=0;exitX=0.5;exitY=0.862;exitDx=0;exitDy=0;exitPerimeter=0;" edge="1" parent="1" source="28" target="30">
                    <mxGeometry relative="1" as="geometry"/>
                </mxCell>
                <mxCell id="28" value="n_Tabla + &quot; x &quot; + i + &quot; = &quot; + resultado" style="shape=document;whiteSpace=wrap;html=1;boundedLbl=1;fontSize=15;" vertex="1" parent="1">
                    <mxGeometry x="300" y="1030" width="260" height="120" as="geometry"/>
                </mxCell>
                <mxCell id="30" value="Incrementar i" style="ellipse;whiteSpace=wrap;html=1;" vertex="1" parent="1">
                    <mxGeometry x="370" y="1200" width="120" height="80" as="geometry"/>
                </mxCell>
                <mxCell id="33" style="edgeStyle=none;html=1;exitX=0.5;exitY=1;exitDx=0;exitDy=0;entryX=0;entryY=0.5;entryDx=0;entryDy=0;" edge="1" parent="1" source="30" target="22">
                    <mxGeometry relative="1" as="geometry">
                        <mxPoint x="290" y="1079" as="targetPoint"/>
                        <Array as="points">
                            <mxPoint x="430" y="1330"/>
                            <mxPoint x="190" y="1330"/>
                            <mxPoint x="190" y="1210"/>
                            <mxPoint x="190" y="800"/>
                        </Array>
                    </mxGeometry>
                </mxCell>
                <mxCell id="35" value="End" style="rounded=1;whiteSpace=wrap;html=1;fontSize=14;" vertex="1" parent="1">
                    <mxGeometry x="670" y="960" width="120" height="70" as="geometry"/>
                </mxCell>
            </root>
        </mxGraphModel>
    </diagram>
</mxfile>